/* XPM */
static char * zdoom_xpm[] = {
"64 64 2 1",
" 	c None",
".	c #DE2300",
"                                                                ",
"                                                                ",
"                                                                ",
"                                                                ",
"                                                                ",
"                                                                ",
"                                     ...  ...                   ",
"             ...                ...........   ....              ",
"              .....           ............  ......              ",
"              .......        ............  .......              ",
"               ........      ............ ........              ",
"               ........      .....................              ",
"               .......       .....................              ",
"                .....        .....................              ",
"                .....         .............  .....              ",
"                .....         ...........    .....              ",
"                .....         ..........     .....              ",
"                .....         .........      .....              ",
"                .....         ........       .....              ",
"                .....         ........       .....              ",
"                .....         ........       .....              ",
"                .....         .......        .....              ",
"                .....         .......        .....              ",
"                .....         .......        .....              ",
"                .....         .......        .....              ",
"                .....         .......        .....              ",
"                .....         .......        .....              ",
"               ......         .......        .....              ",
"               .....          ......         .....              ",
"               .....          ......         .....              ",
"               .....          ......         .....              ",
"               .....          ......         ..... ..           ",
"               .....          ......         .......            ",
"               .....          ......         .......            ",
"               ....           ......         .......            ",
"               ....           ......         ......             ",
"              .....          .......         ......             ",
"              ....          ........         ......             ",
"              ....          ........         ......             ",
"              ....            ......         .....              ",
"              ....             .....         .....              ",
"             .....             .....         .....              ",
"             .....              ....         .....              ",
"            ......               ..          ....               ",
"          ........               ..         .....               ",
"           .......                ..        .....               ",
"            ......                ..        .....               ",
"             .....                ..        ....                ",
"              ....                 .        ....                ",
"                ...                .        ...                 ",
"              ......               .        ...                 ",
"                ....                        ..                  ",
"                 ....                       ..                  ",
"                   ..                       .                   ",
"                    ..                      .                   ",
"                     ..                    .                    ",
"                      ..                                        ",
"                       .                                        ",
"                                                                ",
"                                                                ",
"                                                                ",
"                                                                ",
"                                                                ",
"                                                                "};
